<svg width="441" height="104" viewBox="0 0 441 104" fill="none" xmlns="http://www.w3.org/2000/svg">
<path d="M60.8075 25.1985C60.8075 24.1305 51.7079 20.7 46.6193 19.8495C39.4996 18.6585 39.3598 18.6624 31.9662 20.2275C15.2751 23.7623 3.72083 35.86 0.497849 53.1767C-0.858521 60.4687 0.612114 69.8407 4.23304 76.9832C5.57069 79.6202 6.76847 81.7789 6.89455 81.7789C7.02064 81.7799 6.97434 79.38 6.79113 76.4457C6.05237 64.5912 11.1016 51.8183 19.7658 43.6304C26.393 37.366 30.7468 35.167 42.6162 32.085C52.0537 29.634 60.8075 26.3207 60.8075 25.1985Z" fill="#40E76F"/>
<path d="M61.3316 58.2825C65.9316 51.3369 67.8248 44.6492 68.4286 33.2229L68.993 22.5162L63.7458 26.485C57.9855 30.8418 54.9654 32.1096 41.2471 35.9328C26.523 40.0366 19.4506 45.6848 13.7119 57.9222C11.3793 62.8951 11.0681 64.7408 11.1006 73.411C11.1292 81.3832 11.5438 84.1433 13.2814 87.9301C14.4615 90.5012 15.8277 92.6058 16.3172 92.6058C16.8068 92.6058 17.448 90.8133 17.7416 88.6221C18.434 83.4661 24.1215 71.5397 29.0988 64.8068C33.3255 59.0887 41.0688 51.7543 47.6704 47.2154C53.9902 42.8695 53.9351 43.784 47.4793 50.3742L41.5997 56.3758L45.786 55.7015C50.918 54.8747 51.2726 56.3039 46.3751 58.0738C38.4407 60.9412 28.2281 73.5074 24.4633 85.0361C21.9476 92.7416 20.7656 102.922 22.2796 103.856C22.9395 104.264 23.3769 103.786 23.3769 102.654C23.3769 101.62 23.8635 99.3791 24.4584 97.6742C25.34 95.1474 26.0738 94.5745 28.429 94.5745C32.2341 94.5745 42.7078 91.0111 46.4854 88.4321C50.1713 85.9151 55.8824 80.64 55.8824 79.7531C55.8824 79.3928 54.664 79.3239 53.1736 79.6005C50.8204 80.0376 51.1366 79.57 55.584 76.0372C59.9181 72.5949 65.7326 64.9771 65.7326 62.7426C65.7326 62.3843 64.1753 62.0909 62.2713 62.0909H58.8099L61.3316 58.2825Z" fill="#40E76F"/>
<path d="M49.4454 97.0029C74.5436 90.4697 86.9903 64.0754 75.9601 40.7748C73.1626 34.8658 71.6427 34.0636 71.6427 38.498C71.6427 41.962 68.204 52.6756 66.1532 55.6021C64.1753 58.4242 64.3881 59.1379 67.2102 59.1379C68.5646 59.1379 69.6628 59.6921 69.651 60.3683C69.6106 62.6855 65.9927 69.6015 63.0524 72.9828C61.435 74.8422 60.2874 76.8621 60.5002 77.4704C60.714 78.0787 58.6238 81.0534 55.8559 84.0803C50.7397 89.6744 39.1874 96.5264 34.8188 96.5579C33.1118 96.5707 33.0025 96.7459 34.2121 97.5275C36.3949 98.9371 42.8704 98.7146 49.4454 97.0029Z" fill="#40E76F"/>
<path d="M155.286 91H171.925L206.757 45.3069C207.867 43.4584 208.81 42.0536 209.586 41.0924C210.363 40.0943 211.176 39.0037 212.027 37.8207H212.359C213.247 38.9667 214.079 40.0388 214.855 41.037C215.632 42.0351 216.575 43.4399 217.684 45.2514L252.627 91H269.988L221.4 31.0555H203.762L155.286 91ZM174.699 77.525H250.076L243.364 66.9335H181.521L174.699 77.525Z" fill="#201F1F"/>
<path d="M243.364 42.9224H285.13V90.7782H300.494V42.9224H342.203V30.7782H243.364V42.9224Z" fill="#201F1F"/>
<path d="M325.675 91H342.314L377.146 45.3068C378.256 43.4584 379.199 42.0536 379.975 41.0924C380.752 40.0943 381.565 39.0037 382.416 37.8207H382.748C383.636 38.9667 384.468 40.0388 385.244 41.037C386.021 42.0351 386.964 43.4399 388.073 45.2514L423.016 91H440.377L391.789 31.0555H374.151L325.675 91ZM345.088 77.525H420.465L413.753 66.9335H351.91L345.088 77.525Z" fill="#201F1F"/>
<path fill-rule="evenodd" clip-rule="evenodd" d="M107.142 91H92V56.1756H107.142H163.883V66.8226H107.142V91ZM107.142 42.9224L92 42.6709V31H168.875V42.9224H107.142Z" fill="#201F1F"/>
<path d="M400 18.9861H440V12.1292H400V18.9861ZM416.596 31H423.404V0H416.596V31Z" fill="#201F1F"/>
</svg>
